<svg width="30" height="34" viewBox="0 0 30 34" fill="none" xmlns="http://www.w3.org/2000/svg">
<path d="M27.8696 31.002C27.4821 30.9849 27.0698 31.0872 26.5942 31.2676C26.1158 31.4491 25.5268 31.7285 24.7769 32.1035C24.1318 32.426 23.6229 32.4444 23.1528 32.3428C22.6412 32.2321 22.185 31.9883 21.5786 31.7188C20.9982 31.4608 20.3262 31.2071 19.5161 31.207C18.6999 31.207 17.7966 31.4631 16.7358 32.126C15.9931 32.5902 15.4343 32.7731 15.0005 32.8164V33.8184C15.6528 33.7741 16.3901 33.5214 17.2651 32.9746C18.204 32.3879 18.9263 32.207 19.5161 32.207C20.1121 32.2071 20.6279 32.3908 21.1724 32.6328C21.6907 32.8632 22.2976 33.181 22.9419 33.3203C23.6279 33.4685 24.3695 33.4253 25.2241 32.998C25.9739 32.6232 26.5224 32.3649 26.9487 32.2031C27.3777 32.0404 27.6395 31.9928 27.8257 32.001C27.9916 32.0084 28.1384 32.0615 28.3374 32.2012C28.5563 32.3549 28.795 32.5802 29.1616 32.918C29.3647 33.105 29.6816 33.0927 29.8687 32.8896C30.0556 32.6866 30.0423 32.3697 29.8394 32.1826C29.502 31.8718 29.2006 31.5851 28.9126 31.3828C28.6051 31.1669 28.2771 31.02 27.8696 31.002Z" fill="#052A75"/>
<path d="M2.13086 31.002C2.51835 30.9849 2.93073 31.0872 3.40625 31.2676C3.88471 31.4491 4.47365 31.7285 5.22363 32.1035C5.86866 32.426 6.37761 32.4444 6.84766 32.3428C7.35929 32.2321 7.81551 31.9883 8.42188 31.7188C9.0023 31.4608 9.67433 31.2071 10.4844 31.207C11.3006 31.207 12.2038 31.4631 13.2646 32.126C14.0074 32.5902 14.5662 32.7731 15 32.8164V33.8184C14.3477 33.7741 13.6104 33.5214 12.7354 32.9746C11.7965 32.3879 11.0742 32.207 10.4844 32.207C9.88838 32.2071 9.37257 32.3908 8.82812 32.6328C8.30981 32.8632 7.7029 33.181 7.05859 33.3203C6.37263 33.4685 5.63095 33.4253 4.77637 32.998C4.02655 32.6232 3.47813 32.3649 3.05176 32.2031C2.62279 32.0404 2.36102 31.9928 2.1748 32.001C2.00892 32.0084 1.86213 32.0615 1.66309 32.2012C1.44418 32.3549 1.2055 32.5802 0.838867 32.918C0.635772 33.105 0.318905 33.0927 0.131836 32.8896C-0.0551011 32.6866 -0.0418079 32.3697 0.161133 32.1826C0.498492 31.8718 0.799908 31.5851 1.08789 31.3828C1.39536 31.1669 1.72342 31.02 2.13086 31.002Z" fill="#052A75"/>
<path d="M27.8696 27.002C27.4821 26.9849 27.0698 27.0872 26.5942 27.2676C26.1158 27.4491 25.5268 27.7285 24.7769 28.1035C24.1318 28.426 23.6229 28.4444 23.1528 28.3428C22.6412 28.2321 22.185 27.9883 21.5786 27.7188C20.9982 27.4608 20.3262 27.2071 19.5161 27.207C18.6999 27.207 17.7966 27.4631 16.7358 28.126C15.9931 28.5902 15.4343 28.7731 15.0005 28.8164V29.8184C15.6528 29.7741 16.3901 29.5214 17.2651 28.9746C18.204 28.3879 18.9263 28.207 19.5161 28.207C20.1121 28.2071 20.6279 28.3908 21.1724 28.6328C21.6907 28.8632 22.2976 29.181 22.9419 29.3203C23.6279 29.4685 24.3695 29.4253 25.2241 28.998C25.9739 28.6232 26.5224 28.3649 26.9487 28.2031C27.3777 28.0404 27.6395 27.9928 27.8257 28.001C27.9916 28.0084 28.1384 28.0615 28.3374 28.2012C28.5563 28.3549 28.795 28.5802 29.1616 28.918C29.3647 29.105 29.6816 29.0927 29.8687 28.8896C30.0556 28.6866 30.0423 28.3697 29.8394 28.1826C29.502 27.8718 29.2006 27.5851 28.9126 27.3828C28.6051 27.1669 28.2771 27.02 27.8696 27.002Z" fill="#052A75"/>
<path d="M2.13086 27.002C2.51835 26.9849 2.93073 27.0872 3.40625 27.2676C3.88471 27.4491 4.47365 27.7285 5.22363 28.1035C5.86866 28.426 6.37761 28.4444 6.84766 28.3428C7.35929 28.2321 7.81551 27.9883 8.42188 27.7188C9.0023 27.4608 9.67433 27.2071 10.4844 27.207C11.3006 27.207 12.2038 27.4631 13.2646 28.126C14.0074 28.5902 14.5662 28.7731 15 28.8164V29.8184C14.3477 29.7741 13.6104 29.5214 12.7354 28.9746C11.7965 28.3879 11.0742 28.207 10.4844 28.207C9.88838 28.2071 9.37257 28.3908 8.82812 28.6328C8.30981 28.8632 7.7029 29.181 7.05859 29.3203C6.37263 29.4685 5.63095 29.4253 4.77637 28.998C4.02655 28.6232 3.47813 28.3649 3.05176 28.2031C2.62279 28.0404 2.36102 27.9928 2.1748 28.001C2.00892 28.0084 1.86213 28.0615 1.66309 28.2012C1.44418 28.3549 1.2055 28.5802 0.838867 28.918C0.635772 29.105 0.318905 29.0927 0.131836 28.8896C-0.0551011 28.6866 -0.0418079 28.3697 0.161133 28.1826C0.498492 27.8718 0.799908 27.5851 1.08789 27.3828C1.39536 27.1669 1.72342 27.02 2.13086 27.002Z" fill="#052A75"/>
<path d="M15 24C21.6274 24 27 18.6274 27 12C27 5.37258 21.6274 0 15 0C8.37258 0 3 5.37258 3 12C3 18.6274 8.37258 24 15 24Z" fill="#FCD35C"/>
<path d="M15.2258 21.2258C20.1964 21.2258 24.2258 17.1964 24.2258 12.2258C24.2258 7.25527 20.1964 3.22583 15.2258 3.22583C10.2553 3.22583 6.22583 7.25527 6.22583 12.2258C6.22583 17.1964 10.2553 21.2258 15.2258 21.2258Z" fill="#FCCB3D"/>
</svg>
