<svg width="27" height="23" viewBox="0 0 27 23" fill="none" xmlns="http://www.w3.org/2000/svg">
<path d="M17.8125 10.64C21.2638 10.64 23.8749 12.8849 23.875 15.4398V16.8744L24.2344 16.9799C25.5804 17.3735 26.5 18.5602 26.5 19.6801C26.5 21.069 25.0702 22.3597 23.0625 22.3597H11.25C8.53379 22.3597 6.50032 20.5817 6.5 18.6205C6.5 16.6591 8.53357 14.8802 11.25 14.8802H11.6406L11.7354 14.5013C12.2666 12.3748 14.7877 10.64 17.8125 10.64Z" stroke="#6A696F"/>
<mask id="path-2-inside-1_15_89" fill="white">
<path fill-rule="evenodd" clip-rule="evenodd" d="M14.9389 9.2158C12.5948 9.76597 10.731 11.3146 10.25 13.24C9.07752 13.24 7.99161 13.5546 7.11527 14.0844C5.83549 13.1789 5 11.687 5 10C5 7.23858 7.23858 5 10 5C12.4946 5 14.5626 6.82691 14.9389 9.2158Z"/>
</mask>
<path d="M14.9389 9.2158L15.1674 10.1893L16.0711 9.97722L15.9267 9.06019L14.9389 9.2158ZM10.25 13.24V14.24H11.0309L11.2202 13.4824L10.25 13.24ZM7.11527 14.0844L6.53767 14.9007L7.07225 15.279L7.63265 14.9402L7.11527 14.0844ZM14.7104 8.24225C12.12 8.85022 9.87771 10.6043 9.27982 12.9976L11.2202 13.4824C11.5843 12.0249 13.0696 10.6817 15.1674 10.1893L14.7104 8.24225ZM10.25 12.24C8.90057 12.24 7.63489 12.6017 6.59789 13.2287L7.63265 14.9402C8.34833 14.5075 9.25448 14.24 10.25 14.24V12.24ZM7.69287 13.2681C6.66664 12.542 6 11.3488 6 10H4C4 12.0252 5.00435 13.8158 6.53767 14.9007L7.69287 13.2681ZM6 10C6 7.79086 7.79086 6 10 6V4C6.68629 4 4 6.68629 4 10H6ZM10 6C11.9948 6 13.6501 7.46113 13.951 9.3714L15.9267 9.06019C15.475 6.19269 12.9945 4 10 4V6Z" fill="#6A696F" mask="url(#path-2-inside-1_15_89)"/>
<path d="M9.5 3.5V1" stroke="#6A696F" stroke-linecap="round"/>
<path d="M14.5 5.5L16 3.5" stroke="#6A696F" stroke-linecap="round"/>
<path d="M5 5.5L3.5 3.5" stroke="#6A696F" stroke-linecap="round"/>
<path d="M3 10H1" stroke="#6A696F" stroke-linecap="round"/>
</svg>
