<svg width="22" height="26" viewBox="0 0 22 26" fill="none" xmlns="http://www.w3.org/2000/svg">
<path d="M0.836914 25.1443C0.817415 25.1462 0.797886 25.1477 0.77832 25.1492C0.797885 25.1476 0.817419 25.1463 0.836914 25.1443ZM21.2188 25.1492C21.2002 25.1477 21.1816 25.1471 21.1631 25.1453C21.1816 25.1471 21.2002 25.1477 21.2188 25.1492ZM18.8809 23.9666C18.9886 24.0864 19.1037 24.1966 19.2227 24.2996C19.2171 24.2948 19.2107 24.2908 19.2051 24.2859L18.875 23.9959L18.5449 24.2859C17.2567 25.417 15.2433 25.417 13.9551 24.2859L13.625 23.9959L13.2949 24.2859C12.0076 25.418 9.99316 25.4188 8.70508 24.2859L8.375 23.9959L8.04492 24.2859C6.75674 25.4189 4.74326 25.4189 3.45508 24.2859L3.125 23.9959L2.79492 24.2859C2.78501 24.2947 2.77365 24.3018 2.76367 24.3104C2.88726 24.2042 3.00569 24.0897 3.11719 23.9656H3.13086C4.52447 25.5163 6.97337 25.5159 8.36719 23.9656H8.38086C9.77328 25.515 12.2195 25.5141 13.6143 23.9666C13.6158 23.9661 13.6193 23.9656 13.624 23.9656C13.6268 23.9656 13.6291 23.9663 13.6309 23.9666C15.0252 25.5164 17.4704 25.5157 18.8652 23.9666C18.867 23.9662 18.8701 23.9656 18.874 23.9656C18.8768 23.9656 18.8791 23.9663 18.8809 23.9666ZM1.15527 25.0975C1.13703 25.101 1.1189 25.105 1.10059 25.1082C1.1189 25.105 1.13704 25.101 1.15527 25.0975ZM20.8945 25.1072C20.8799 25.1046 20.8652 25.1022 20.8506 25.0994C20.8652 25.1022 20.8799 25.1046 20.8945 25.1072ZM1.49902 25.0115C1.45751 25.0242 1.41601 25.0366 1.37402 25.0477C1.416 25.0366 1.45754 25.0242 1.49902 25.0115ZM20.5781 25.0359C20.5702 25.0337 20.5626 25.0304 20.5547 25.0281C20.5626 25.0304 20.5702 25.0337 20.5781 25.0359ZM1.74512 24.9276C1.71958 24.9375 1.69372 24.9465 1.66797 24.9559C1.69372 24.9465 1.7196 24.9375 1.74512 24.9276ZM20.333 24.9559C20.3044 24.9455 20.2755 24.9358 20.2471 24.9246C20.2754 24.9358 20.3044 24.9455 20.333 24.9559ZM2.05957 24.785C2.0275 24.8014 1.99538 24.8175 1.96289 24.8328C1.99538 24.8175 2.02752 24.8014 2.05957 24.785ZM20.0264 24.8279C20.0047 24.8176 19.9834 24.8065 19.9619 24.7957C19.9834 24.8065 20.0047 24.8176 20.0264 24.8279ZM2.33398 24.6287C2.30934 24.6443 2.28471 24.6597 2.25977 24.6746C2.28473 24.6597 2.30934 24.6443 2.33398 24.6287ZM2.55566 24.4774C2.54099 24.4882 2.52554 24.498 2.51074 24.5086C2.52556 24.498 2.54098 24.4882 2.55566 24.4774ZM19.457 24.4881C19.4548 24.4864 19.4524 24.4849 19.4502 24.4832C19.4525 24.4849 19.4548 24.4864 19.457 24.4881Z" stroke="#6A696F"/>
<path d="M0.832031 20.5183C0.814817 20.52 0.797538 20.5208 0.780273 20.5222C0.797539 20.5208 0.81482 20.52 0.832031 20.5183ZM21.2188 20.5222C21.2002 20.5207 21.1816 20.5201 21.1631 20.5183C21.1816 20.5201 21.2002 20.5207 21.2188 20.5222ZM18.8809 19.3386C18.9919 19.4621 19.1104 19.5757 19.2334 19.6814C19.2239 19.6733 19.2135 19.6662 19.2041 19.658L18.874 19.3679L18.5439 19.658C17.2537 20.791 15.2443 20.791 13.9541 19.658L13.624 19.3679L13.2939 19.658C12.0035 20.7911 9.9921 20.7907 8.7041 19.658L8.37402 19.3679L8.04395 19.658C6.75576 20.7909 4.74228 20.7909 3.4541 19.658L3.12402 19.3679L2.79395 19.658C2.78821 19.663 2.78115 19.6666 2.77539 19.6716C2.89428 19.5687 3.00855 19.4582 3.11621 19.3386C3.11819 19.3382 3.12129 19.3377 3.12402 19.3376C3.12635 19.3376 3.12903 19.3374 3.13086 19.3376C4.52546 20.8883 6.97238 20.888 8.36719 19.3376H8.38086C9.77515 20.8879 12.2203 20.8879 13.6152 19.3386C13.617 19.3382 13.6201 19.3376 13.624 19.3376C13.6268 19.3376 13.6291 19.3383 13.6309 19.3386C15.0252 20.8884 17.4704 20.8877 18.8652 19.3386C18.867 19.3382 18.8701 19.3376 18.874 19.3376C18.8768 19.3376 18.8791 19.3383 18.8809 19.3386ZM1.15918 20.4695C1.13869 20.4735 1.11824 20.4776 1.09766 20.4812C1.11824 20.4775 1.1387 20.4735 1.15918 20.4695ZM20.8994 20.4812C20.8788 20.4776 20.8584 20.4735 20.8379 20.4695C20.8584 20.4735 20.8788 20.4775 20.8994 20.4812ZM20.5811 20.4099C20.5686 20.4064 20.5564 20.4018 20.5439 20.3982C20.5564 20.4018 20.5686 20.4064 20.5811 20.4099ZM1.44238 20.4021C1.43486 20.4043 1.42746 20.4068 1.41992 20.4089C1.42746 20.4068 1.43486 20.4043 1.44238 20.4021ZM1.75 20.2976C1.72285 20.3083 1.69536 20.3179 1.66797 20.3279C1.69536 20.3179 1.72287 20.3083 1.75 20.2976ZM20.3291 20.3279C20.302 20.318 20.2749 20.3082 20.248 20.2976C20.2749 20.3082 20.302 20.318 20.3291 20.3279ZM20.0264 20.2009C20.004 20.1903 19.9821 20.1789 19.96 20.1677C19.9821 20.1789 20.004 20.1903 20.0264 20.2009ZM2.03613 20.1687C2.01504 20.1793 1.99393 20.1898 1.97266 20.2C1.99394 20.1898 2.01504 20.1793 2.03613 20.1687ZM2.31836 20.0095C2.29849 20.022 2.27885 20.0346 2.25879 20.0466C2.27887 20.0346 2.29849 20.0219 2.31836 20.0095ZM19.7373 20.0466C19.7129 20.032 19.6892 20.016 19.665 20.0007C19.6892 20.016 19.7128 20.032 19.7373 20.0466ZM19.4697 19.8689C19.4629 19.864 19.456 19.8592 19.4492 19.8542C19.456 19.8592 19.4629 19.864 19.4697 19.8689ZM2.54785 19.8552C2.54182 19.8597 2.53535 19.8635 2.5293 19.8679C2.53536 19.8635 2.54182 19.8597 2.54785 19.8552Z" stroke="#6A696F"/>
<circle cx="11.5" cy="9.33765" r="4" stroke="#6A696F"/>
<path d="M11 1.33765V3.33765" stroke="#6A696F" stroke-linecap="round"/>
<path d="M11 14.8376V16.8376" stroke="#6A696F" stroke-linecap="round"/>
<path d="M15.0658 13.1535L16.48 14.5677" stroke="#6A696F" stroke-linecap="round"/>
<path d="M5.5199 3.60754L6.93411 5.02176" stroke="#6A696F" stroke-linecap="round"/>
<path d="M16.75 9.08765H18.75" stroke="#6A696F" stroke-linecap="round"/>
<path d="M3.25 9.08765H5.25" stroke="#6A696F" stroke-linecap="round"/>
<path d="M15.0658 5.02173L16.48 3.60752" stroke="#6A696F" stroke-linecap="round"/>
<path d="M5.5199 14.5677L6.93411 13.1535" stroke="#6A696F" stroke-linecap="round"/>
</svg>
