<svg width="27" height="25" viewBox="0 0 27 25" fill="none" xmlns="http://www.w3.org/2000/svg">
<path d="M7.51411 1.7964C7.58446 2.05776 7.63726 2.32811 7.66928 2.60623C8.03696 5.80119 5.74698 8.68729 2.55201 9.05513C2.27175 9.08738 1.99587 9.09323 1.72646 9.08235C2.71674 10.4076 4.36038 11.1875 6.1223 10.9846C8.76869 10.6799 10.6652 8.28994 10.3605 5.64354C10.1578 3.88369 9.02722 2.46048 7.51411 1.7964Z" stroke="#6A696F"/>
<path d="M16.933 10.649C20.5227 10.649 23.3078 13.1528 23.308 16.0904V17.646L23.6586 17.7564C25.0618 18.1955 26.058 19.5352 26.058 20.8443C26.0578 22.4746 24.5102 23.9087 22.433 23.9087H10.058C7.23823 23.9087 5.05809 21.9279 5.05798 19.6558C5.05798 17.3836 7.23816 15.4019 10.058 15.4019H10.4545L10.5453 15.0161C11.1131 12.5838 13.7814 10.649 16.933 10.649Z" stroke="#6A696F"/>
</svg>
