<svg width="27" height="18" viewBox="0 0 27 18" fill="none" xmlns="http://www.w3.org/2000/svg">
<mask id="path-1-inside-1_15_25" fill="white">
<path fill-rule="evenodd" clip-rule="evenodd" d="M15 3.28419C15.5957 1.38382 17.4495 0 19.5446 0C22.116 0 24.203 2.08693 24.203 4.65833V5.59C25.2837 5.9813 26.0663 7.17383 26.0663 8.385C26.0663 9.93157 24.8179 11.18 23.2713 11.18H21.2712C20.8186 10.6433 20.219 10.2203 19.5346 10V8.83333C19.5346 6.24231 17.631 4.0441 15 3.28419Z"/>
</mask>
<path d="M15 3.28419L14.0458 2.98509L13.7399 3.9611L14.7225 4.24492L15 3.28419ZM24.203 5.59H23.203V6.29146L23.8625 6.53027L24.203 5.59ZM21.2712 11.18L20.5068 11.8247L20.8064 12.18H21.2712V11.18ZM19.5346 10H18.5346V10.7287L19.2283 10.9519L19.5346 10ZM19.5446 -1C17.0178 -1 14.7738 0.662556 14.0458 2.98509L15.9542 3.58328C16.4176 2.10508 17.8812 1 19.5446 1V-1ZM25.203 4.65833C25.203 1.53465 22.6683 -1 19.5446 -1V1C21.5638 1 23.203 2.63922 23.203 4.65833H25.203ZM25.203 5.59V4.65833H23.203V5.59H25.203ZM27.0663 8.385C27.0663 6.79571 26.0589 5.19844 24.5434 4.64973L23.8625 6.53027C24.5085 6.76416 25.0663 7.55195 25.0663 8.385H27.0663ZM23.2713 12.18C25.3702 12.18 27.0663 10.4839 27.0663 8.385H25.0663C25.0663 9.37928 24.2656 10.18 23.2713 10.18V12.18ZM21.2712 12.18H23.2713V10.18H21.2712V12.18ZM22.0357 10.5353C21.4718 9.86673 20.7176 9.33022 19.841 9.04809L19.2283 10.9519C19.7204 11.1103 20.1653 11.4198 20.5068 11.8247L22.0357 10.5353ZM20.5346 10V8.83333H18.5346V10H20.5346ZM20.5346 8.83333C20.5346 5.71852 18.2561 3.18377 15.2775 2.32346L14.7225 4.24492C17.0059 4.90443 18.5346 6.7661 18.5346 8.83333H20.5346Z" fill="#6A696F" mask="url(#path-1-inside-1_15_25)"/>
<path d="M11.8125 4.5C15.2157 4.5 17.8748 6.94303 17.875 9.83301V11.3643L18.2217 11.4756C19.5466 11.902 20.5 13.2099 20.5 14.5C20.5 16.1068 19.0221 17.5 17.0625 17.5H5.25C2.58165 17.5 0.5 15.5698 0.5 13.333C0.500202 11.0964 2.58178 9.16699 5.25 9.16699H5.64941L5.7373 8.77734C6.27958 6.38818 8.82245 4.5 11.8125 4.5Z" stroke="#6A696F"/>
</svg>
